<svg width="63" height="63" viewBox="0 0 63 63" fill="none" xmlns="http://www.w3.org/2000/svg">
<path d="M62.9497 50.6967L61.8139 46.3538C61.5657 45.4037 60.7754 44.7124 59.8007 44.5923L55.7507 44.094C55.6503 44.0817 55.5573 44.0338 55.4885 43.9594L49.3278 37.2751C49.2371 37.1768 49.1783 37.0549 49.158 36.9223L47.889 28.6943C47.812 28.1944 47.3454 27.8521 46.8441 27.9286C46.3442 28.0057 46.0014 28.4736 46.0785 28.9735L47.3475 37.2014C47.4235 37.6951 47.6427 38.1499 47.981 38.5168L54.1414 45.2008C54.5039 45.5942 54.996 45.8469 55.527 45.9123L59.577 46.4106C59.8019 46.4383 59.9842 46.5978 60.0416 46.817L61.0215 50.5634L55.1594 48.1153C54.7349 47.938 54.327 47.7167 53.947 47.4577L45.1706 41.4758C44.9261 41.3092 44.7454 41.061 44.6623 40.7771L41.4288 29.7536C41.7241 28.9165 41.8776 28.0318 41.8776 27.1375C41.8776 27.1375 41.8761 20.4849 41.8733 20.4288C42.2129 20.5778 42.5377 20.7606 42.8388 20.979L43.3428 21.3446C44.4586 22.1541 45.219 23.3999 45.4292 24.7625C45.5978 25.9439 47.4378 25.6521 47.2397 24.4832C46.9555 22.6409 45.9273 20.9564 44.4186 19.8618L43.9146 19.4962C43.0177 18.8454 41.9704 18.4167 40.8764 18.2442C40.2867 17.6744 39.4849 17.3227 38.6022 17.3227H36.1179V15.3918C36.1179 15.3889 36.1175 15.3861 36.1174 15.3831C36.5478 14.9061 36.9076 14.3635 37.1769 13.7793C38.0086 13.5191 38.7751 12.8424 39.2646 11.9058C39.6475 11.1728 39.8089 10.3667 39.7192 9.63596C39.6155 8.79223 39.1784 8.11116 38.5201 7.76712C38.2817 7.6426 38.0257 7.5668 37.7599 7.53961V7.52472V4.91207C37.7599 2.5065 35.8029 0.549316 33.3973 0.549316H29.6514C27.2458 0.549316 25.2887 2.5065 25.2887 4.91207V7.52484V7.53456C25.0061 7.5572 24.7336 7.63472 24.4801 7.76712C23.8218 8.11116 23.3848 8.79223 23.281 9.63596C23.1912 10.3667 23.3526 11.1729 23.7357 11.9058C24.2303 12.8525 25.0294 13.5423 25.8777 13.7922C26.1363 14.3496 26.4767 14.8691 26.8825 15.3295V17.3228H24.3982C23.5154 17.3228 22.7137 17.6745 22.1241 18.2442C21.0302 18.4166 19.9827 18.8455 19.0856 19.4963L18.5817 19.8619C17.0729 20.9565 16.0446 22.641 15.7605 24.4834L13.8421 36.9226C13.8217 37.0549 13.763 37.1769 13.6723 37.2754L7.51158 43.9596C7.44304 44.034 7.3499 44.0818 7.24949 44.0941L3.19965 44.5925C2.22512 44.7124 1.43479 45.4037 1.18636 46.3538L0.050636 50.6968C-0.0810241 51.2003 0.0495286 51.7225 0.391107 52.1016C0.160886 52.7106 0.0399309 53.358 0.0399309 54.0159C0.0399309 57.0027 2.46998 59.4328 5.45682 59.4328H11.7396C11.5101 59.9333 11.4462 60.5046 11.5773 61.0543C11.8085 62.1446 13.1094 62.7745 14.1078 62.2775L17.6184 60.6405C18.3995 60.2763 19.2311 60.0551 20.0904 59.9833L26.6189 59.4329H57.5437C60.5305 59.4329 62.9606 57.0028 62.9606 54.016C62.9606 53.3594 62.8386 52.712 62.6084 52.1028C62.9506 51.7234 63.0815 51.2007 62.9497 50.6967ZM44.1387 42.9897L47.1102 45.015C45.3868 44.7772 43.6474 44.6562 41.9056 44.6562C41.893 44.6562 41.8807 44.6576 41.8681 44.658L41.529 44.0977C40.29 42.0502 39.6352 39.7032 39.6352 37.3102V35.3347C39.6352 34.266 39.8445 33.2105 40.2449 32.2269L42.9042 41.2928C43.1066 41.9825 43.5449 42.585 44.1387 42.9897ZM28.7145 17.0991C29.5287 17.7788 30.5263 18.1198 31.5243 18.1198C32.5026 18.1198 33.4805 17.7921 34.2857 17.1391V18.7114C34.2857 19.4464 33.6877 20.0444 32.9527 20.0444H30.0475C29.3125 20.0444 28.7145 19.4464 28.7145 18.7114V17.0991ZM29.6514 2.38136H33.3973C34.7927 2.38136 35.9279 3.51671 35.9279 4.91207V4.9507H27.1207V4.91207C27.1207 3.51659 28.2561 2.38136 29.6514 2.38136ZM25.3595 11.0575C25.15 10.6565 25.0552 10.2198 25.0995 9.85953C25.1244 9.37288 25.4804 9.26202 25.8052 9.45323C26.0891 9.5908 26.4238 9.57271 26.6911 9.40512C26.9585 9.23765 27.1208 8.94431 27.1208 8.62894V6.78275H35.928V8.60606C35.928 8.91736 36.0861 9.20739 36.3479 9.37608C36.6096 9.54466 36.939 9.5689 37.2226 9.44019C37.536 9.26263 37.8778 9.39023 37.901 9.85941C37.9453 10.2197 37.8505 10.6564 37.641 11.0574C37.3101 11.6907 36.7967 12.043 36.4607 12.0638C36.0966 12.0863 35.7805 12.3227 35.6561 12.6656C35.4197 13.3169 35.0308 13.9138 34.5311 14.3916L33.2943 15.5746C32.302 16.5239 30.747 16.5238 29.7546 15.5746L28.5179 14.3916C28.0184 13.9139 27.6295 13.3173 27.3931 12.6659C27.2647 12.3121 26.9331 12.0729 26.5569 12.0628C26.218 12.0536 25.698 11.7054 25.3595 11.0575ZM24.3982 19.1549H26.9142C27.1307 20.6907 28.4529 21.8764 30.0475 21.8764H32.9527C34.5474 21.8764 35.8697 20.6909 36.086 19.1549H38.6021C39.3978 19.1549 40.0454 19.8023 40.0454 20.5981V27.1376C40.0454 28.2169 39.7551 29.2783 39.2057 30.2072C38.2882 31.7589 37.8031 33.532 37.8031 35.3348V37.3103C37.8031 40.0376 38.5495 42.7127 39.9615 45.0463L40.3012 45.6074L39.0996 45.7795C34.0571 46.502 28.9435 46.5022 23.9009 45.7795L22.6993 45.6074L23.0389 45.0461C24.451 42.7127 25.1972 40.0376 25.1972 37.3102V35.3347C25.1972 33.532 24.7122 31.7589 23.7946 30.2071C23.2453 29.278 22.9549 28.2166 22.9549 27.1375V20.598C22.9548 19.8023 23.6023 19.1549 24.3982 19.1549ZM21.4714 44.0977L21.1323 44.658C21.1197 44.6576 21.1074 44.6561 21.0946 44.6561C19.3516 44.6561 17.6114 44.779 15.8869 45.0171L18.8617 42.9895C19.4555 42.5848 19.8939 41.9823 20.0961 41.2926L22.7554 32.2267C23.1558 33.2103 23.3651 34.2659 23.3651 35.3345V37.3101C23.3652 39.7033 22.7103 42.0503 21.4714 44.0977ZM2.95873 46.8173C3.01607 46.598 3.19842 46.4384 3.42347 46.4109L7.47331 45.9125C8.00426 45.8472 8.49633 45.5946 8.85882 45.2012L15.0195 38.5169C15.3579 38.1499 15.5768 37.695 15.653 37.2017L17.5714 24.7626C17.7814 23.4001 18.542 22.1544 19.6578 21.3447L20.1617 20.9792C20.4628 20.7607 20.7876 20.5779 21.1273 20.4289C21.1245 20.4849 21.123 27.1376 21.123 27.1376C21.123 28.032 21.2766 28.9167 21.5719 29.7537L18.3384 40.7771C18.255 41.061 18.0745 41.3092 17.83 41.4758L9.05348 47.4577C8.67351 47.7167 8.26561 47.938 7.8411 48.1152L1.97915 50.5634L2.95873 46.8173ZM1.87185 54.0159C1.87185 53.467 1.99933 52.9296 2.23902 52.4403L7.84344 50.0995L10.9384 49.9324C13.4742 49.7954 16.0165 50.0111 18.4934 50.5728C18.6465 50.6001 19.4859 50.8185 19.6255 50.8063C20.0438 50.8063 20.4215 50.5179 20.518 50.0928C20.63 49.5994 20.3208 49.1088 19.8275 48.9968L18.8987 48.7861C16.4372 48.2278 13.9158 47.9905 11.3949 48.0786L12.0417 47.6378C14.8973 46.9011 17.8367 46.5157 20.7858 46.4906C20.7886 46.4967 20.7903 46.5033 20.7933 46.5094C21.008 46.9632 21.433 47.2766 21.9298 47.3477L23.6408 47.5928C26.2483 47.9664 28.8742 48.1532 31.4999 48.1532C34.1259 48.1532 36.7516 47.9664 39.3591 47.5928L41.07 47.3477C41.5669 47.2765 41.9919 46.9631 42.2067 46.5095C42.2097 46.5034 42.2114 46.4969 42.2144 46.4906C45.1632 46.5158 48.1024 46.9011 50.9581 47.6376L51.6052 48.0786C49.0844 47.9907 46.5631 48.2278 44.1015 48.7861L31.5001 51.6445L27.2584 50.6824C25.9083 49.9246 24.1994 50.1822 23.1378 51.3272L21.5175 53.0746C21.3503 53.2548 21.1396 53.394 20.9082 53.4771L16.9925 54.8808C16.1893 55.1687 15.4698 55.614 14.8537 56.2045L13.3967 57.6007H5.4567C3.48008 57.6007 1.87185 55.9926 1.87185 54.0159ZM19.9371 58.1575C18.8622 58.2475 17.8216 58.5242 16.8441 58.98L13.3545 60.6073C13.3097 60.3852 13.3819 60.1525 13.5462 59.9951L16.1213 57.5273C16.5504 57.1161 17.0515 56.806 17.6108 56.6054L21.5265 55.2017C22.0333 55.02 22.4948 54.7153 22.8609 54.3204L24.4812 52.573C25.0064 52.0009 25.8752 51.9298 26.5047 52.3635L27.9556 53.2696C28.3856 53.5382 28.849 53.7513 29.3327 53.9029L29.3947 53.9224V57.3602L19.9371 58.1575ZM57.5435 57.6007H31.2268V53.5852L44.5068 50.5729C46.9839 50.0111 49.5256 49.7955 52.0618 49.9326C52.0618 49.9326 55.1012 50.0939 55.1371 50.0915L60.762 52.4408C61.0015 52.9301 61.1285 53.4685 61.1285 54.016C61.1285 55.9926 59.5203 57.6007 57.5435 57.6007Z" fill="#FF2625"/>
</svg>
