<svg width="95" height="76" viewBox="0 0 95 76" fill="none" xmlns="http://www.w3.org/2000/svg">
<path d="M28.2 0.899988C32.6 0.899988 36.2 2.39999 39 5.39998C42 8.39999 43.5 12.1 43.5 16.5C43.5 19.1 43.1 21.5 42.3 23.7C41.5 25.9 40.1 28.8 38.1 32.4L15.3 75.6H0.900002L19.8 31.8C17.2 30.6 15.1 28.8 13.5 26.4C12.1 23.8 11.4 21 11.4 18C11.4 13.2 13 9.19999 16.2 5.99999C19.6 2.59999 23.6 0.899988 28.2 0.899988ZM79.2 0.899988C83.6 0.899988 87.2 2.39999 90 5.39998C93 8.39999 94.5 12.1 94.5 16.5C94.5 19.1 94.1 21.5 93.3 23.7C92.5 25.9 91.1 28.8 89.1 32.4L66.3 75.6H51.9L70.8 31.8C68.2 30.6 66.1 28.8 64.5 26.4C63.1 23.8 62.4 21 62.4 18C62.4 13.2 64 9.19999 67.2 5.99999C70.6 2.59999 74.6 0.899988 79.2 0.899988Z" fill="#FF2625" fill-opacity="0.08"/>
</svg>
