<svg width="66" height="66" viewBox="0 0 66 66" fill="none" xmlns="http://www.w3.org/2000/svg">
<g filter="url(#filter0_d_304_118)">
<rect x="10" y="5" width="46" height="46" rx="2" fill="white"/>
<path fill-rule="evenodd" clip-rule="evenodd" d="M21.1118 19.5186C21.1118 19.0668 21.2913 18.6335 21.6108 18.3139C21.9303 17.9944 22.3636 17.8149 22.8155 17.8149H43.2599C43.7118 17.8149 44.1451 17.9944 44.4646 18.3139C44.7841 18.6335 44.9636 19.0668 44.9636 19.5186C44.9636 19.9705 44.7841 20.4038 44.4646 20.7233C44.1451 21.0429 43.7118 21.2223 43.2599 21.2223H22.8155C22.3636 21.2223 21.9303 21.0429 21.6108 20.7233C21.2913 20.4038 21.1118 19.9705 21.1118 19.5186ZM21.1118 28.0372C21.1118 27.5853 21.2913 27.152 21.6108 26.8325C21.9303 26.513 22.3636 26.3335 22.8155 26.3335H43.2599C43.7118 26.3335 44.1451 26.513 44.4646 26.8325C44.7841 27.152 44.9636 27.5853 44.9636 28.0372C44.9636 28.489 44.7841 28.9224 44.4646 29.2419C44.1451 29.5614 43.7118 29.7409 43.2599 29.7409H22.8155C22.3636 29.7409 21.9303 29.5614 21.6108 29.2419C21.2913 28.9224 21.1118 28.489 21.1118 28.0372ZM21.1118 36.5557C21.1118 36.1038 21.2913 35.6705 21.6108 35.351C21.9303 35.0315 22.3636 34.852 22.8155 34.852H43.2599C43.7118 34.852 44.1451 35.0315 44.4646 35.351C44.7841 35.6705 44.9636 36.1038 44.9636 36.5557C44.9636 37.0075 44.7841 37.4409 44.4646 37.7604C44.1451 38.0799 43.7118 38.2594 43.2599 38.2594H22.8155C22.3636 38.2594 21.9303 38.0799 21.6108 37.7604C21.2913 37.4409 21.1118 37.0075 21.1118 36.5557Z" fill="#FF2625"/>
</g>
<defs>
<filter id="filter0_d_304_118" x="0" y="0" width="66" height="66" filterUnits="userSpaceOnUse" color-interpolation-filters="sRGB">
<feFlood flood-opacity="0" result="BackgroundImageFix"/>
<feColorMatrix in="SourceAlpha" type="matrix" values="0 0 0 0 0 0 0 0 0 0 0 0 0 0 0 0 0 0 127 0" result="hardAlpha"/>
<feOffset dy="5"/>
<feGaussianBlur stdDeviation="5"/>
<feColorMatrix type="matrix" values="0 0 0 0 1 0 0 0 0 0.554167 0 0 0 0 0.554167 0 0 0 0.25 0"/>
<feBlend mode="normal" in2="BackgroundImageFix" result="effect1_dropShadow_304_118"/>
<feBlend mode="normal" in="SourceGraphic" in2="effect1_dropShadow_304_118" result="shape"/>
</filter>
</defs>
</svg>
