<svg width="72" height="72" viewBox="0 0 72 72" fill="none" xmlns="http://www.w3.org/2000/svg">
<mask id="path-1-inside-1_304_147" fill="white">
<path d="M69.2038 63.1603L64.06 60.0741L62.2925 43.2816C62.1453 41.8744 61.5593 40.5491 60.6173 39.4934C59.6753 38.4377 58.4252 37.7049 57.0438 37.399L41.625 33.9725V29.716L42.3523 28.9888C43.3273 28.0138 43.875 26.6914 43.875 25.3125C43.875 23.9336 43.3273 22.6112 42.3523 21.6362L39.6317 18.9156C40.2562 18.3886 40.7581 17.7316 41.1024 16.9905C41.4467 16.2495 41.625 15.4421 41.625 14.625V10.125C41.6257 8.95482 41.2612 7.81359 40.5824 6.86043C39.9035 5.90728 38.9442 5.18973 37.838 4.80782C36.7319 4.42591 35.5342 4.3987 34.4119 4.72996C33.2896 5.06123 32.2986 5.73446 31.5772 6.65579L30.3295 6.03191C29.7417 5.73806 29.0886 5.59934 28.4321 5.62891C27.7756 5.65848 27.1375 5.85536 26.5785 6.20086C26.0195 6.54636 25.5581 7.02901 25.2381 7.60299C24.918 8.17696 24.75 8.82321 24.75 9.48038V12.102C24.7537 13.468 24.4865 14.8212 23.9637 16.0833C23.441 17.3454 22.673 18.4912 21.7045 19.4545C21.5471 19.6118 21.44 19.8123 21.3966 20.0305C21.3532 20.2487 21.3755 20.4749 21.4607 20.6805C21.5458 20.886 21.69 21.0617 21.875 21.1854C22.06 21.309 22.2775 21.375 22.5 21.375H25.875C27.0287 21.3744 28.163 21.0781 29.1696 20.5144C30.1763 19.9508 31.0217 19.1386 31.6252 18.1554C31.9175 18.5171 32.253 18.8416 32.6244 19.1214C32.2058 19.4347 31.8339 19.8059 31.5196 20.2238L27.7875 25.2C26.5461 26.8553 25.875 28.8685 25.875 30.9375C25.875 33.0065 26.5461 35.0197 27.7875 36.675L28.125 37.125V41.4422L23.9392 54H3.375C3.07664 54 2.7905 54.1185 2.57952 54.3295C2.36855 54.5405 2.25001 54.8266 2.25 55.125V66.375C2.25001 66.6734 2.36855 66.9595 2.57952 67.1705C2.7905 67.3814 3.07664 67.5 3.375 67.5H5.625C5.81927 67.5 6.01024 67.4497 6.1793 67.354C6.34836 67.2583 6.48976 67.1204 6.58974 66.9538L9.5956 61.9439L26.606 63.7344C27.909 63.8715 29.2238 63.6264 30.39 63.0291C31.5561 62.4317 32.5232 61.508 33.1734 60.3704L40.0279 48.375H53.0777L56.25 64.2364V66.375C56.25 66.6734 56.3685 66.9595 56.5795 67.1705C56.7905 67.3814 57.0766 67.5 57.375 67.5H68.625C68.9234 67.5 69.2095 67.3814 69.4205 67.1705C69.6315 66.9595 69.75 66.6734 69.75 66.375V64.125C69.75 63.9307 69.6997 63.7398 69.604 63.5707C69.5083 63.4016 69.3704 63.2602 69.2038 63.1603ZM41.625 25.3125C41.626 25.6999 41.5502 26.0837 41.402 26.4416C41.2537 26.7996 41.0359 27.1245 40.7612 27.3977L39.7045 28.4545C39.4935 28.6655 39.375 28.9516 39.375 29.25V33.75H36.1328L35.0592 31.6027L39.6557 25.1676V25.1675C40.1238 24.5137 40.4082 23.7465 40.4796 22.9457L40.7612 23.2273C41.0359 23.5005 41.2537 23.8254 41.402 24.1834C41.5502 24.5413 41.626 24.9251 41.625 25.3125ZM36 6.75C36.6977 6.75089 37.3779 6.96762 37.9476 7.37046C38.5172 7.7733 38.9482 8.34251 39.1815 9H36C35.7016 9.00001 35.4155 9.11851 35.2045 9.32945L33.284 11.25H32.625V10.125C32.626 9.23021 32.9819 8.37236 33.6146 7.73965C34.2474 7.10693 35.1052 6.75102 36 6.75ZM25.875 19.125H24.8757C26.267 17.0476 27.0067 14.6023 27 12.102V9.48038C27 9.20673 27.07 8.93763 27.2032 8.69862C27.3365 8.45961 27.5286 8.25864 27.7614 8.11477C27.9942 7.97091 28.2599 7.88893 28.5332 7.87662C28.8066 7.86432 29.0786 7.92209 29.3233 8.04446L30.5678 8.6667C30.4398 9.14224 30.375 9.63255 30.375 10.125V14.625C30.3736 15.8181 29.8991 16.9619 29.0555 17.8055C28.2119 18.6491 27.0681 19.1236 25.875 19.125ZM32.625 13.5H33.75C34.0484 13.5 34.3345 13.3815 34.5455 13.1705L36.466 11.25H39.375V14.625C39.375 15.5201 39.0194 16.3786 38.3865 17.0115C37.7535 17.6444 36.8951 18 36 18C35.1049 18 34.2464 17.6444 33.6135 17.0115C32.9806 16.3786 32.625 15.5201 32.625 14.625V13.5ZM29.5876 26.55L33.3197 21.5737C33.6288 21.1636 34.0287 20.8307 34.488 20.601C34.9474 20.3713 35.4536 20.2512 35.9672 20.25C36.3866 20.25 36.7979 20.3656 37.156 20.584C37.5141 20.8024 37.805 21.1153 37.997 21.4883C38.1889 21.8612 38.2744 22.2798 38.244 22.6982C38.2136 23.1165 38.0686 23.5184 37.8248 23.8597L32.8346 30.846C32.7157 31.0125 32.6445 31.2081 32.6285 31.412C32.6125 31.6159 32.6523 31.8203 32.7438 32.0032L36.1188 38.7532C36.2522 39.02 36.4862 39.2229 36.7692 39.3173L39.8923 40.3583L40.2561 40.7222L39.8047 41.625H34.3125L29.5876 35.325C28.6382 34.0593 28.125 32.5197 28.125 30.9375C28.125 29.3553 28.6382 27.8157 29.5876 26.55ZM32.8499 43.425C32.9547 43.5647 33.0906 43.6781 33.2469 43.7562C33.4031 43.8343 33.5753 43.875 33.75 43.875H40.5C40.7089 43.875 40.9137 43.8168 41.0914 43.707C41.2691 43.5972 41.4128 43.44 41.5062 43.2532L42.6312 41.0032C42.7368 40.792 42.7733 40.5529 42.7355 40.3198C42.6977 40.0867 42.5875 39.8714 42.4206 39.7045L41.2956 38.5795C41.172 38.456 41.0215 38.363 40.8558 38.3077L37.9229 37.33L37.2579 36H40.3765L48.375 37.7775V46.125H34.875C33.6819 46.1236 32.5381 45.6491 31.6945 44.8055C30.8509 43.9618 30.3764 42.8181 30.375 41.625V40.1251L32.8499 43.425ZM4.98807 65.25H4.5V56.25H6.9527L7.81152 60.5441L4.98807 65.25ZM31.2197 59.2542C30.7862 60.0124 30.1414 60.6282 29.3641 61.0263C28.5867 61.4245 27.7103 61.588 26.8417 61.4968L9.94088 59.7178L9.24729 56.25H24.75C24.9861 56.25 25.2163 56.1757 25.4078 56.0377C25.5994 55.8996 25.7426 55.7048 25.8173 55.4808L26.8536 52.3721L33.3082 55.5994L31.2197 59.2542ZM34.4262 53.6428L27.5723 50.2159L29.2132 45.2932C29.8249 46.2384 30.6635 47.0155 31.6524 47.5538C32.6412 48.0921 33.7491 48.3744 34.875 48.375H37.4364L34.4262 53.6428ZM55.1032 47.0293C55.0522 46.7743 54.9144 46.5448 54.7132 46.38C54.5121 46.2151 54.2601 46.125 54 46.125H50.625V38.2775L56.5557 39.5954C57.4766 39.7994 58.3101 40.2879 58.9381 40.9917C59.5661 41.6956 59.9568 42.5791 60.0548 43.5173L61.8061 60.1543L58.1651 62.3389L55.1032 47.0293ZM67.5 65.25H58.5V64.762L63 62.062L67.5 64.7619V65.25Z"/>
</mask>
<path d="M69.2038 63.1603L64.06 60.0741L62.2925 43.2816C62.1453 41.8744 61.5593 40.5491 60.6173 39.4934C59.6753 38.4377 58.4252 37.7049 57.0438 37.399L41.625 33.9725V29.716L42.3523 28.9888C43.3273 28.0138 43.875 26.6914 43.875 25.3125C43.875 23.9336 43.3273 22.6112 42.3523 21.6362L39.6317 18.9156C40.2562 18.3886 40.7581 17.7316 41.1024 16.9905C41.4467 16.2495 41.625 15.4421 41.625 14.625V10.125C41.6257 8.95482 41.2612 7.81359 40.5824 6.86043C39.9035 5.90728 38.9442 5.18973 37.838 4.80782C36.7319 4.42591 35.5342 4.3987 34.4119 4.72996C33.2896 5.06123 32.2986 5.73446 31.5772 6.65579L30.3295 6.03191C29.7417 5.73806 29.0886 5.59934 28.4321 5.62891C27.7756 5.65848 27.1375 5.85536 26.5785 6.20086C26.0195 6.54636 25.5581 7.02901 25.2381 7.60299C24.918 8.17696 24.75 8.82321 24.75 9.48038V12.102C24.7537 13.468 24.4865 14.8212 23.9637 16.0833C23.441 17.3454 22.673 18.4912 21.7045 19.4545C21.5471 19.6118 21.44 19.8123 21.3966 20.0305C21.3532 20.2487 21.3755 20.4749 21.4607 20.6805C21.5458 20.886 21.69 21.0617 21.875 21.1854C22.06 21.309 22.2775 21.375 22.5 21.375H25.875C27.0287 21.3744 28.163 21.0781 29.1696 20.5144C30.1763 19.9508 31.0217 19.1386 31.6252 18.1554C31.9175 18.5171 32.253 18.8416 32.6244 19.1214C32.2058 19.4347 31.8339 19.8059 31.5196 20.2238L27.7875 25.2C26.5461 26.8553 25.875 28.8685 25.875 30.9375C25.875 33.0065 26.5461 35.0197 27.7875 36.675L28.125 37.125V41.4422L23.9392 54H3.375C3.07664 54 2.7905 54.1185 2.57952 54.3295C2.36855 54.5405 2.25001 54.8266 2.25 55.125V66.375C2.25001 66.6734 2.36855 66.9595 2.57952 67.1705C2.7905 67.3814 3.07664 67.5 3.375 67.5H5.625C5.81927 67.5 6.01024 67.4497 6.1793 67.354C6.34836 67.2583 6.48976 67.1204 6.58974 66.9538L9.5956 61.9439L26.606 63.7344C27.909 63.8715 29.2238 63.6264 30.39 63.0291C31.5561 62.4317 32.5232 61.508 33.1734 60.3704L40.0279 48.375H53.0777L56.25 64.2364V66.375C56.25 66.6734 56.3685 66.9595 56.5795 67.1705C56.7905 67.3814 57.0766 67.5 57.375 67.5H68.625C68.9234 67.5 69.2095 67.3814 69.4205 67.1705C69.6315 66.9595 69.75 66.6734 69.75 66.375V64.125C69.75 63.9307 69.6997 63.7398 69.604 63.5707C69.5083 63.4016 69.3704 63.2602 69.2038 63.1603ZM41.625 25.3125C41.626 25.6999 41.5502 26.0837 41.402 26.4416C41.2537 26.7996 41.0359 27.1245 40.7612 27.3977L39.7045 28.4545C39.4935 28.6655 39.375 28.9516 39.375 29.25V33.75H36.1328L35.0592 31.6027L39.6557 25.1676V25.1675C40.1238 24.5137 40.4082 23.7465 40.4796 22.9457L40.7612 23.2273C41.0359 23.5005 41.2537 23.8254 41.402 24.1834C41.5502 24.5413 41.626 24.9251 41.625 25.3125ZM36 6.75C36.6977 6.75089 37.3779 6.96762 37.9476 7.37046C38.5172 7.7733 38.9482 8.34251 39.1815 9H36C35.7016 9.00001 35.4155 9.11851 35.2045 9.32945L33.284 11.25H32.625V10.125C32.626 9.23021 32.9819 8.37236 33.6146 7.73965C34.2474 7.10693 35.1052 6.75102 36 6.75ZM25.875 19.125H24.8757C26.267 17.0476 27.0067 14.6023 27 12.102V9.48038C27 9.20673 27.07 8.93763 27.2032 8.69862C27.3365 8.45961 27.5286 8.25864 27.7614 8.11477C27.9942 7.97091 28.2599 7.88893 28.5332 7.87662C28.8066 7.86432 29.0786 7.92209 29.3233 8.04446L30.5678 8.6667C30.4398 9.14224 30.375 9.63255 30.375 10.125V14.625C30.3736 15.8181 29.8991 16.9619 29.0555 17.8055C28.2119 18.6491 27.0681 19.1236 25.875 19.125ZM32.625 13.5H33.75C34.0484 13.5 34.3345 13.3815 34.5455 13.1705L36.466 11.25H39.375V14.625C39.375 15.5201 39.0194 16.3786 38.3865 17.0115C37.7535 17.6444 36.8951 18 36 18C35.1049 18 34.2464 17.6444 33.6135 17.0115C32.9806 16.3786 32.625 15.5201 32.625 14.625V13.5ZM29.5876 26.55L33.3197 21.5737C33.6288 21.1636 34.0287 20.8307 34.488 20.601C34.9474 20.3713 35.4536 20.2512 35.9672 20.25C36.3866 20.25 36.7979 20.3656 37.156 20.584C37.5141 20.8024 37.805 21.1153 37.997 21.4883C38.1889 21.8612 38.2744 22.2798 38.244 22.6982C38.2136 23.1165 38.0686 23.5184 37.8248 23.8597L32.8346 30.846C32.7157 31.0125 32.6445 31.2081 32.6285 31.412C32.6125 31.6159 32.6523 31.8203 32.7438 32.0032L36.1188 38.7532C36.2522 39.02 36.4862 39.2229 36.7692 39.3173L39.8923 40.3583L40.2561 40.7222L39.8047 41.625H34.3125L29.5876 35.325C28.6382 34.0593 28.125 32.5197 28.125 30.9375C28.125 29.3553 28.6382 27.8157 29.5876 26.55ZM32.8499 43.425C32.9547 43.5647 33.0906 43.6781 33.2469 43.7562C33.4031 43.8343 33.5753 43.875 33.75 43.875H40.5C40.7089 43.875 40.9137 43.8168 41.0914 43.707C41.2691 43.5972 41.4128 43.44 41.5062 43.2532L42.6312 41.0032C42.7368 40.792 42.7733 40.5529 42.7355 40.3198C42.6977 40.0867 42.5875 39.8714 42.4206 39.7045L41.2956 38.5795C41.172 38.456 41.0215 38.363 40.8558 38.3077L37.9229 37.33L37.2579 36H40.3765L48.375 37.7775V46.125H34.875C33.6819 46.1236 32.5381 45.6491 31.6945 44.8055C30.8509 43.9618 30.3764 42.8181 30.375 41.625V40.1251L32.8499 43.425ZM4.98807 65.25H4.5V56.25H6.9527L7.81152 60.5441L4.98807 65.25ZM31.2197 59.2542C30.7862 60.0124 30.1414 60.6282 29.3641 61.0263C28.5867 61.4245 27.7103 61.588 26.8417 61.4968L9.94088 59.7178L9.24729 56.25H24.75C24.9861 56.25 25.2163 56.1757 25.4078 56.0377C25.5994 55.8996 25.7426 55.7048 25.8173 55.4808L26.8536 52.3721L33.3082 55.5994L31.2197 59.2542ZM34.4262 53.6428L27.5723 50.2159L29.2132 45.2932C29.8249 46.2384 30.6635 47.0155 31.6524 47.5538C32.6412 48.0921 33.7491 48.3744 34.875 48.375H37.4364L34.4262 53.6428ZM55.1032 47.0293C55.0522 46.7743 54.9144 46.5448 54.7132 46.38C54.5121 46.2151 54.2601 46.125 54 46.125H50.625V38.2775L56.5557 39.5954C57.4766 39.7994 58.3101 40.2879 58.9381 40.9917C59.5661 41.6956 59.9568 42.5791 60.0548 43.5173L61.8061 60.1543L58.1651 62.3389L55.1032 47.0293ZM67.5 65.25H58.5V64.762L63 62.062L67.5 64.7619V65.25Z" fill="#FF2625" stroke="white" stroke-width="0.2" mask="url(#path-1-inside-1_304_147)"/>
</svg>
