<svg width="67" height="67" viewBox="0 0 67 67" fill="none" xmlns="http://www.w3.org/2000/svg">
<path d="M10.4688 2.09375H6.28125C6.0036 2.09375 5.73733 2.20405 5.541 2.40038C5.34467 2.5967 5.23438 2.86298 5.23438 3.14062V10.4688C5.23438 10.7464 5.34467 11.0127 5.541 11.209C5.73733 11.4053 6.0036 11.5156 6.28125 11.5156H10.4688C10.7464 11.5156 11.0127 11.4053 11.209 11.209C11.4053 11.0127 11.5156 10.7464 11.5156 10.4688V9.42188H12.5656C12.5645 9.55487 12.5889 9.68684 12.6374 9.81068L16.3167 19.0089C16.7274 20.0421 17.4584 20.9164 18.4024 21.5037L25.125 25.7052V31.3262L21.0244 57.9802L16.2114 60.8679C16.0564 60.961 15.9281 61.0925 15.839 61.2499C15.7499 61.4072 15.7031 61.5849 15.7031 61.7656V63.8594C15.7031 64.137 15.8134 64.4033 16.0098 64.5996C16.2061 64.796 16.4724 64.9062 16.75 64.9062H26.1719C26.4495 64.9062 26.7158 64.796 26.9121 64.5996C27.1084 64.4033 27.2187 64.137 27.2188 63.8594V61.9282L33.5 42.1871L39.7812 61.9282V63.8594C39.7813 64.137 39.8915 64.4033 40.0879 64.5996C40.2842 64.796 40.5505 64.9062 40.8281 64.9062H50.25C50.5276 64.9062 50.7939 64.796 50.9902 64.5996C51.1866 64.4033 51.2969 64.137 51.2969 63.8594V61.7656C51.2969 61.5849 51.25 61.4072 51.161 61.2499C51.0719 61.0925 50.9436 60.961 50.7886 60.8679L45.9756 57.9802L41.875 31.3262V25.7052L48.5976 21.5036C49.5416 20.9164 50.2726 20.042 50.6833 19.0089L54.3626 9.81068C54.4111 9.68684 54.4355 9.55487 54.4344 9.42188H55.4844V10.4688C55.4844 10.7464 55.5947 11.0127 55.791 11.209C55.9873 11.4053 56.2536 11.5156 56.5312 11.5156H60.7188C60.9964 11.5156 61.2627 11.4053 61.459 11.209C61.6553 11.0127 61.7656 10.7464 61.7656 10.4688V3.14062C61.7656 2.86298 61.6553 2.5967 61.459 2.40038C61.2627 2.20405 60.9964 2.09375 60.7188 2.09375H56.5312C56.2536 2.09375 55.9873 2.20405 55.791 2.40038C55.5947 2.5967 55.4844 2.86298 55.4844 3.14062V4.1875H46.0625V3.14062C46.0625 2.86298 45.9522 2.5967 45.7559 2.40038C45.5595 2.20405 45.2933 2.09375 45.0156 2.09375H40.8281C40.5505 2.09375 40.2842 2.20405 40.0879 2.40038C39.8915 2.5967 39.7813 2.86298 39.7812 3.14062V10.4688C39.7813 10.7464 39.8915 11.0127 40.0879 11.209C40.2842 11.4053 40.5505 11.5156 40.8281 11.5156H45.0156C45.2933 11.5156 45.5595 11.4053 45.7559 11.209C45.9522 11.0127 46.0625 10.7464 46.0625 10.4688V9.42188H47.1094V10.1788L44.341 14.7927L37.6875 16.456V11.8326C37.6875 11.2068 37.5177 10.5927 37.1961 10.0558C36.8745 9.51894 36.4132 9.07941 35.8615 8.78411C35.3097 8.48881 34.6881 8.34881 34.063 8.37904C33.4379 8.40927 32.8327 8.60859 32.312 8.95575L29.7787 10.6446C29.6353 10.7402 29.5177 10.8697 29.4364 11.0217C29.355 11.1736 29.3125 11.3433 29.3125 11.5156V16.456L22.659 14.7927L19.8906 10.1788V9.42188H20.9375V10.4688C20.9375 10.7464 21.0478 11.0127 21.2441 11.209C21.4405 11.4053 21.7067 11.5156 21.9844 11.5156H26.1719C26.4495 11.5156 26.7158 11.4053 26.9121 11.209C27.1084 11.0127 27.2187 10.7464 27.2188 10.4688V3.14062C27.2187 2.86298 27.1084 2.5967 26.9121 2.40038C26.7158 2.20405 26.4495 2.09375 26.1719 2.09375H21.9844C21.7067 2.09375 21.4405 2.20405 21.2441 2.40038C21.0478 2.5967 20.9375 2.86298 20.9375 3.14062V4.1875H11.5156V3.14062C11.5156 2.86298 11.4053 2.5967 11.209 2.40038C11.0127 2.20405 10.7464 2.09375 10.4688 2.09375ZM9.42188 9.42188H7.32812V4.1875H9.42188V9.42188ZM57.5781 4.1875H59.6719V9.42188H57.5781V4.1875ZM43.9688 9.42188H41.875V4.1875H43.9688V9.42188ZM23.0312 4.1875H25.125V9.42188H23.0312V4.1875ZM17.7969 62.8125V62.3583L21.9194 59.8848L25.125 62.289V62.8125H17.7969ZM25.6211 60.044L23.1145 58.1641L25.2817 44.0776L30.1816 45.7109L25.6211 60.044ZM33.5 37.6875C33.2778 37.6875 33.0614 37.7582 32.8821 37.8893C32.7028 38.0204 32.5698 38.2052 32.5025 38.4169L30.8166 43.7155L25.6046 41.9783L27.07 32.4531H39.93L41.3954 41.9783L36.1834 43.7155L34.4975 38.4169C34.4302 38.2052 34.2972 38.0204 34.1179 37.8893C33.9386 37.7582 33.7222 37.6875 33.5 37.6875ZM36.8184 45.7109L41.7183 44.0776L43.8855 58.1641L41.3789 60.044L36.8184 45.7109ZM49.2031 62.3583V62.8125H41.875V62.289L45.0806 59.8848L49.2031 62.3583ZM40.2733 24.2372C40.1227 24.3313 39.9985 24.4622 39.9125 24.6175C39.8264 24.7728 39.7812 24.9474 39.7812 25.125V30.3594H27.2188V25.125C27.2188 24.9474 27.1736 24.7728 27.0875 24.6175C27.0015 24.4622 26.8773 24.3313 26.7267 24.2372L23.1139 21.9793L24.9011 17.5114L29.8166 18.7403C30.1753 19.4047 30.7071 19.9597 31.3555 20.3465C32.004 20.7333 32.745 20.9375 33.5 20.9375C34.2551 20.9375 34.996 20.7333 35.6445 20.3465C36.2929 19.9597 36.8247 19.4047 37.1834 18.7403L42.0989 17.5114L43.8861 21.9792L40.2733 24.2372ZM31.4062 16.75V14.6562H35.5938V16.75C35.5938 17.3053 35.3732 17.8379 34.9805 18.2305C34.5879 18.6232 34.0553 18.8438 33.5 18.8438C32.9447 18.8438 32.4121 18.6232 32.0195 18.2305C31.6268 17.8379 31.4062 17.3053 31.4062 16.75ZM55.4844 7.32812H53.9462L53.6845 6.28125H55.4844V7.32812ZM46.0625 7.32812V6.28125H47.1094V7.32812H46.0625ZM45.2695 16.7188C45.5389 16.6514 45.7705 16.4798 45.9134 16.2418L49.054 11.0074C49.1515 10.8447 49.2031 10.6585 49.2031 10.4688V6.28125H51.5264L52.2929 9.34737L48.7394 18.2313C48.4929 18.8512 48.0543 19.3758 47.4879 19.7281L45.6901 20.8518L44.1489 16.9989L45.2695 16.7188ZM33.4735 10.6978C33.6789 10.5608 33.9176 10.4822 34.1642 10.4703C34.4108 10.4584 34.6559 10.5137 34.8736 10.6302C35.0912 10.7466 35.2731 10.92 35.3999 11.1318C35.5268 11.3435 35.5938 11.5858 35.5938 11.8326V12.5625H31.4062V12.0759L33.4735 10.6978ZM20.9375 7.32812H19.8906V6.28125H20.9375V7.32812ZM15.4736 6.28125H17.7969V10.4688C17.7969 10.6585 17.8485 10.8447 17.946 11.0074L21.0866 16.2418C21.2295 16.4798 21.4611 16.6514 21.7305 16.7188L22.8511 16.9989L21.3099 20.8518L19.5121 19.7282C18.9457 19.3758 18.5071 18.8512 18.2606 18.2313L14.7071 9.34737L15.4736 6.28125ZM13.3155 6.28125L13.0538 7.32812H11.5156V6.28125H13.3155Z" fill="#FF2625" stroke="white" stroke-width="0.4"/>
</svg>
