<svg width="20" height="20" viewBox="0 0 20 20" fill="none" xmlns="http://www.w3.org/2000/svg">
<g clip-path="url(#clip0_2_355)">
<path d="M10 0C7.28333 0 6.94417 0.0125 5.8775 0.06C4.8125 0.11 4.0875 0.2775 3.45 0.525C2.7925 0.78 2.23417 1.1225 1.67833 1.67833C1.1225 2.23417 0.779167 2.79167 0.525 3.45C0.2775 4.0875 0.109167 4.8125 0.06 5.8775C0.01 6.94417 0 7.28333 0 10C0 12.7167 0.0125 13.0558 0.06 14.1225C0.11 15.1867 0.2775 15.9125 0.525 16.55C0.776077 17.2174 1.16966 17.822 1.67833 18.3217C2.17773 18.8307 2.78241 19.2243 3.45 19.475C4.08833 19.7217 4.81333 19.8908 5.8775 19.94C6.94417 19.99 7.28333 20 10 20C12.7167 20 13.0558 19.9875 14.1225 19.94C15.1867 19.89 15.9125 19.7217 16.55 19.475C17.2172 19.2236 17.8218 18.8301 18.3217 18.3217C18.8309 17.8224 19.2245 17.2177 19.475 16.55C19.7217 15.9125 19.8908 15.1867 19.94 14.1225C19.99 13.0558 20 12.7167 20 10C20 7.28333 19.9875 6.94417 19.94 5.8775C19.89 4.81333 19.7217 4.08667 19.475 3.45C19.2238 2.78268 18.8302 2.17811 18.3217 1.67833C17.8226 1.16887 17.2178 0.775158 16.55 0.525C15.9125 0.2775 15.1867 0.109167 14.1225 0.06C13.0558 0.01 12.7167 0 10 0ZM10 1.8C12.6692 1.8 12.9875 1.81333 14.0417 1.85917C15.0167 1.905 15.5458 2.06667 15.8975 2.205C16.3658 2.38583 16.6975 2.6025 17.0492 2.95167C17.3983 3.30167 17.615 3.63417 17.7958 4.1025C17.9325 4.45417 18.0958 4.98333 18.14 5.95833C18.1875 7.01333 18.1983 7.33 18.1983 10C18.1983 12.67 18.1858 12.9875 18.1367 14.0417C18.0858 15.0167 17.9233 15.5458 17.7858 15.8975C17.6232 16.3315 17.3675 16.7246 17.0367 17.0492C16.7134 17.3802 16.3206 17.6353 15.8867 17.7958C15.5367 17.9325 14.9992 18.0958 14.0242 18.14C12.9625 18.1875 12.65 18.1983 9.975 18.1983C7.29917 18.1983 6.98667 18.1858 5.92583 18.1367C4.95 18.0858 4.4125 17.9233 4.0625 17.7858C3.62825 17.6252 3.23556 17.3692 2.91333 17.0367C2.57882 16.7156 2.32226 16.3222 2.16333 15.8867C2.02583 15.5367 1.86417 14.9992 1.81333 14.0242C1.77583 12.9742 1.7625 12.65 1.7625 9.9875C1.7625 7.32417 1.77583 6.99917 1.81333 5.93667C1.86417 4.96167 2.02583 4.425 2.16333 4.075C2.33833 3.6 2.5625 3.275 2.91333 2.92417C3.2625 2.575 3.58833 2.35 4.0625 2.17583C4.4125 2.0375 4.93833 1.875 5.91333 1.825C6.97583 1.7875 7.28833 1.775 9.9625 1.775L10 1.8ZM10 4.865C9.32566 4.865 8.65793 4.99782 8.03492 5.25588C7.41191 5.51394 6.84584 5.89218 6.36901 6.36901C5.89218 6.84584 5.51394 7.41191 5.25588 8.03492C4.99782 8.65793 4.865 9.32566 4.865 10C4.865 10.6743 4.99782 11.3421 5.25588 11.9651C5.51394 12.5881 5.89218 13.1542 6.36901 13.631C6.84584 14.1078 7.41191 14.4861 8.03492 14.7441C8.65793 15.0022 9.32566 15.135 10 15.135C11.3619 15.135 12.668 14.594 13.631 13.631C14.594 12.668 15.135 11.3619 15.135 10C15.135 8.63811 14.594 7.33201 13.631 6.36901C12.668 5.40601 11.3619 4.865 10 4.865ZM10 13.3333C8.15833 13.3333 6.66667 11.8417 6.66667 10C6.66667 8.15833 8.15833 6.66667 10 6.66667C11.8417 6.66667 13.3333 8.15833 13.3333 10C13.3333 11.8417 11.8417 13.3333 10 13.3333ZM16.5383 4.6625C16.5268 4.97302 16.3953 5.26697 16.1715 5.48256C15.9477 5.69815 15.6491 5.8186 15.3383 5.8186C15.0276 5.8186 14.729 5.69815 14.5052 5.48256C14.2814 5.26697 14.1499 4.97302 14.1383 4.6625C14.1383 4.34424 14.2648 4.03902 14.4898 3.81397C14.7148 3.58893 15.0201 3.4625 15.3383 3.4625C15.6566 3.4625 15.9618 3.58893 16.1869 3.81397C16.4119 4.03902 16.5383 4.34424 16.5383 4.6625Z" fill="#FF6262"/>
</g>
<defs>
<clipPath id="clip0_2_355">
<rect width="20" height="20" fill="white"/>
</clipPath>
</defs>
</svg>
