<svg width="20" height="14" viewBox="0 0 20 14" fill="none" xmlns="http://www.w3.org/2000/svg">
<g clip-path="url(#clip0_2_359)">
<path d="M19.5581 2.18361C19.4434 1.76155 19.2196 1.37678 18.9091 1.0676C18.5985 0.75842 18.212 0.535625 17.7881 0.4214C16.2361 0 9.98968 0 9.98968 0C9.98968 0 3.74296 0.0127555 2.19093 0.434156C1.76698 0.548388 1.38049 0.771195 1.06994 1.08039C0.759398 1.38958 0.53563 1.77437 0.420926 2.19644C-0.0485275 4.94184 -0.230637 9.1252 0.433816 11.7608C0.548533 12.1828 0.772305 12.5676 1.08285 12.8768C1.3934 13.186 1.77988 13.4088 2.20382 13.523C3.75585 13.9444 10.0024 13.9444 10.0024 13.9444C10.0024 13.9444 16.2489 13.9444 17.8008 13.523C18.2248 13.4088 18.6113 13.186 18.9219 12.8768C19.2324 12.5676 19.4562 12.1828 19.5709 11.7608C20.0661 9.01149 20.2187 4.83078 19.5581 2.18369V2.18361Z" fill="#FF0000"/>
<path d="M8.00165 9.96002L13.1836 6.97195L8.00173 3.98389L8.00165 9.96002Z" fill="white"/>
</g>
<defs>
<clipPath id="clip0_2_359">
<rect width="20" height="14" fill="white"/>
</clipPath>
</defs>
</svg>
